<svg width="1490" height="955" viewBox="0 0 1490 955" fill="none" xmlns="http://www.w3.org/2000/svg">
<rect width="1490" height="955" fill="#151515"/>
<mask id="path-2-inside-1" fill="white">
<path d="M659 32.6935V28.8745L669.271 22.8007L661.772 18.1074V25.8376L659 27.402V13L675.043 22.8007L668.681 26.7118L675.043 32.1874H669.999L665.545 28.5524L659 32.6935Z"/>
</mask>
<path d="M659 28.8745L655.946 23.7098L653 25.4519V28.8745H659ZM659 32.6935H653V43.5903L662.208 37.7638L659 32.6935ZM665.545 28.5524L669.338 23.9039L665.989 21.1707L662.336 23.4821L665.545 28.5524ZM669.999 32.1874L666.205 36.8358L667.861 38.1874H669.999V32.1874ZM675.043 32.1874V38.1874H691.214L678.957 27.6395L675.043 32.1874ZM668.681 26.7118L665.539 21.6003L658.541 25.9018L664.767 31.2597L668.681 26.7118ZM675.043 22.8007L678.185 27.9123L686.527 22.7849L678.171 17.6805L675.043 22.8007ZM659 13L662.128 7.8798L653 2.3037V13H659ZM659 27.402H653V37.6772L661.949 32.6275L659 27.402ZM661.772 25.8376L664.721 31.063L667.772 29.3412V25.8376H661.772ZM661.772 18.1074L664.955 13.0214L655.772 7.27411V18.1074H661.772ZM669.271 22.8007L672.325 27.9654L680.814 22.9462L672.455 17.7147L669.271 22.8007ZM653 28.8745V32.6935H665V28.8745H653ZM662.208 37.7638L668.753 33.6226L662.336 23.4821L655.792 27.6233L662.208 37.7638ZM661.751 33.2008L666.205 36.8358L673.792 27.539L669.338 23.9039L661.751 33.2008ZM669.999 38.1874H675.043V26.1874H669.999V38.1874ZM678.957 27.6395L672.594 22.164L664.767 31.2597L671.13 36.7353L678.957 27.6395ZM671.823 31.8234L678.185 27.9123L671.902 17.6892L665.539 21.6003L671.823 31.8234ZM678.171 17.6805L662.128 7.8798L655.872 18.1202L671.916 27.921L678.171 17.6805ZM653 13V27.402H665V13H653ZM661.949 32.6275L664.721 31.063L658.824 20.6122L656.051 22.1766L661.949 32.6275ZM667.772 25.8376V18.1074H655.772V25.8376H667.772ZM658.589 23.1935L666.088 27.8868L672.455 17.7147L664.955 13.0214L658.589 23.1935ZM666.218 17.6361L655.946 23.7098L662.054 34.0391L672.325 27.9654L666.218 17.6361Z" fill="#242424" mask="url(#path-2-inside-1)"/>
<mask id="path-4-inside-2" fill="white">
<path d="M552.007 559L554.539 561.858L550.88 573.218L559.604 571.755L554.478 565.97L555.516 562.96L565.066 573.739L546.56 577.047L548.728 569.899L540.336 570.022L544.111 566.675L549.855 566.441L552.007 559Z"/>
</mask>
<path d="M554.539 561.858L560.25 563.698L561.299 560.44L559.029 557.878L554.539 561.858ZM552.007 559L556.497 555.02L549.271 546.865L546.244 557.333L552.007 559ZM549.855 566.441L550.099 572.436L554.417 572.26L555.618 568.108L549.855 566.441ZM544.111 566.675L543.867 560.679L541.732 560.766L540.132 562.184L544.111 566.675ZM540.336 570.022L536.357 565.531L524.254 576.259L540.423 576.022L540.336 570.022ZM548.728 569.899L554.469 571.641L556.855 563.778L548.641 563.899L548.728 569.899ZM546.56 577.047L540.819 575.304L537.976 584.677L547.615 582.954L546.56 577.047ZM565.066 573.739L566.121 579.646L576.649 577.764L569.556 569.759L565.066 573.739ZM555.516 562.96L560.006 558.98L553.192 551.29L549.844 561.005L555.516 562.96ZM554.478 565.97L548.807 564.015L547.665 567.327L549.988 569.95L554.478 565.97ZM559.604 571.755L560.596 577.673L571.278 575.883L564.094 567.775L559.604 571.755ZM550.88 573.218L545.17 571.377L542.145 580.766L551.871 579.136L550.88 573.218ZM559.029 557.878L556.497 555.02L547.517 562.98L550.049 565.838L559.029 557.878ZM546.244 557.333L544.092 564.774L555.618 568.108L557.77 560.667L546.244 557.333ZM549.611 560.445L543.867 560.679L544.355 572.671L550.099 572.436L549.611 560.445ZM540.132 562.184L536.357 565.531L544.315 574.512L548.09 571.166L540.132 562.184ZM540.423 576.022L548.816 575.898L548.641 563.899L540.248 564.022L540.423 576.022ZM542.988 568.156L540.819 575.304L552.301 578.789L554.469 571.641L542.988 568.156ZM547.615 582.954L566.121 579.646L564.011 567.832L545.505 571.14L547.615 582.954ZM569.556 569.759L560.006 558.98L551.026 566.94L560.576 577.719L569.556 569.759ZM549.844 561.005L548.807 564.015L560.15 567.926L561.188 564.916L549.844 561.005ZM549.988 569.95L555.114 575.735L564.094 567.775L558.968 561.99L549.988 569.95ZM558.613 565.837L549.888 567.3L551.871 579.136L560.596 577.673L558.613 565.837ZM556.59 575.058L560.25 563.698L548.829 560.018L545.17 571.377L556.59 575.058Z" fill="#242424" mask="url(#path-4-inside-2)"/>
<mask id="path-6-inside-3" fill="white">
<path d="M415.285 419.357L413.535 422.751L401.622 423.439L406.135 431.048L409.679 424.179L412.86 424.06L406.258 436.859L396.493 420.792L403.94 420.234L400.795 412.45L405.279 414.763L407.571 420.036L415.285 419.357Z"/>
</mask>
<path d="M413.535 422.751L413.881 428.741L417.298 428.544L418.867 425.502L413.535 422.751ZM415.285 419.357L420.617 422.108L425.612 412.424L414.759 413.38L415.285 419.357ZM407.571 420.036L402.069 422.428L403.792 426.392L408.097 426.013L407.571 420.036ZM405.279 414.763L410.781 412.371L409.929 410.411L408.029 409.431L405.279 414.763ZM400.795 412.45L403.546 407.117L389.174 399.702L395.233 414.697L400.795 412.45ZM403.94 420.234L404.389 426.217L412.58 425.604L409.503 417.986L403.94 420.234ZM396.493 420.792L396.044 414.808L386.28 415.54L391.366 423.908L396.493 420.792ZM406.258 436.859L401.131 439.975L406.687 449.116L411.59 439.61L406.258 436.859ZM412.86 424.06L418.192 426.811L422.902 417.679L412.635 418.063L412.86 424.06ZM409.679 424.179L409.454 418.182L405.953 418.313L404.347 421.427L409.679 424.179ZM406.135 431.048L400.975 434.109L406.502 443.427L411.467 433.8L406.135 431.048ZM401.622 423.439L401.276 417.448L391.431 418.017L396.462 426.499L401.622 423.439ZM418.867 425.502L420.617 422.108L409.953 416.606L408.203 420L418.867 425.502ZM414.759 413.38L407.044 414.059L408.097 426.013L415.812 425.334L414.759 413.38ZM413.073 417.644L410.781 412.371L399.776 417.155L402.069 422.428L413.073 417.644ZM408.029 409.431L403.546 407.117L398.045 417.782L402.528 420.096L408.029 409.431ZM395.233 414.697L398.377 422.481L409.503 417.986L406.358 410.202L395.233 414.697ZM403.491 414.25L396.044 414.808L396.941 426.775L404.389 426.217L403.491 414.25ZM391.366 423.908L401.131 439.975L411.385 433.742L401.619 417.675L391.366 423.908ZM411.59 439.61L418.192 426.811L407.528 421.308L400.926 434.107L411.59 439.61ZM412.635 418.063L409.454 418.182L409.904 430.175L413.084 430.056L412.635 418.063ZM404.347 421.427L400.803 428.297L411.467 433.8L415.011 426.93L404.347 421.427ZM411.295 427.988L406.782 420.378L396.462 426.499L400.975 434.109L411.295 427.988ZM401.968 429.429L413.881 428.741L413.188 416.761L401.276 417.448L401.968 429.429Z" fill="#242424" mask="url(#path-6-inside-3)"/>
<mask id="path-8-inside-4" fill="white">
<path d="M99 850.097L102.688 849.109L111.212 857.46L113.804 849L106.339 851.001L104.11 848.728L118.019 845L112.706 863.036L107.282 857.901L103.641 865.466L102.335 860.592L104.693 855.348L99 850.097Z"/>
</mask>
<path d="M102.688 849.109L106.887 844.822L104.442 842.427L101.136 843.313L102.688 849.109ZM99 850.097L97.4474 844.301L86.924 847.122L94.9321 854.508L99 850.097ZM104.693 855.348L110.165 857.808L111.937 853.867L108.761 850.937L104.693 855.348ZM102.335 860.592L96.8633 858.132L95.987 860.081L96.54 862.145L102.335 860.592ZM103.641 865.466L97.8457 867.019L102.031 882.643L109.047 868.068L103.641 865.466ZM107.282 857.901L111.407 853.544L105.44 847.895L101.876 855.299L107.282 857.901ZM112.706 863.036L108.581 867.394L115.694 874.128L118.462 864.731L112.706 863.036ZM118.019 845L123.774 846.695L126.796 836.436L116.466 839.204L118.019 845ZM104.11 848.728L102.558 842.932L92.6344 845.591L99.8253 852.928L104.11 848.728ZM106.339 851.001L102.054 855.201L104.506 857.704L107.891 856.797L106.339 851.001ZM113.804 849L119.541 850.757L122.713 840.401L112.251 843.205L113.804 849ZM111.212 857.46L107.013 861.746L114.059 868.65L116.949 859.217L111.212 857.46ZM101.136 843.313L97.4474 844.301L100.553 855.893L104.241 854.904L101.136 843.313ZM94.9321 854.508L100.625 859.759L108.761 850.937L103.068 845.686L94.9321 854.508ZM99.221 852.888L96.8633 858.132L107.808 863.052L110.165 857.808L99.221 852.888ZM96.54 862.145L97.8457 867.019L109.437 863.913L108.131 859.039L96.54 862.145ZM109.047 868.068L112.688 860.504L101.876 855.299L98.2351 862.864L109.047 868.068ZM103.157 862.259L108.581 867.394L116.831 858.679L111.407 853.544L103.157 862.259ZM118.462 864.731L123.774 846.695L112.263 843.305L106.951 861.341L118.462 864.731ZM116.466 839.204L102.558 842.932L105.663 854.523L119.571 850.796L116.466 839.204ZM99.8253 852.928L102.054 855.201L110.624 846.801L108.395 844.527L99.8253 852.928ZM107.891 856.797L115.357 854.796L112.251 843.205L104.786 845.205L107.891 856.797ZM108.067 847.243L105.476 855.703L116.949 859.217L119.541 850.757L108.067 847.243ZM115.411 853.174L106.887 844.822L98.4892 853.395L107.013 861.746L115.411 853.174Z" fill="#242424" mask="url(#path-8-inside-4)"/>
<mask id="path-10-inside-5" fill="white">
<path d="M213.001 33.0971L216.689 32.1086L225.214 40.46L227.805 32.0003L220.34 34.0011L218.111 31.7275L232.02 28L226.707 46.0364L221.283 40.9015L217.642 48.4659L216.337 43.592L218.694 38.3481L213.001 33.0971Z"/>
</mask>
<path d="M216.689 32.1086L220.888 27.8224L218.443 25.4268L215.137 26.313L216.689 32.1086ZM213.001 33.0971L211.449 27.3014L200.925 30.1217L208.933 37.5079L213.001 33.0971ZM218.694 38.3481L224.166 40.8083L225.939 36.8669L222.762 33.9373L218.694 38.3481ZM216.337 43.592L210.865 41.1318L209.988 43.081L210.541 45.1452L216.337 43.592ZM217.642 48.4659L211.847 50.0191L216.033 65.6434L223.048 51.068L217.642 48.4659ZM221.283 40.9015L225.408 36.544L219.442 30.8949L215.877 38.2994L221.283 40.9015ZM226.707 46.0364L222.582 50.3939L229.695 57.1276L232.463 47.7314L226.707 46.0364ZM232.02 28L237.775 29.695L240.797 19.436L230.467 22.2044L232.02 28ZM218.111 31.7275L216.559 25.9319L206.636 28.5913L213.826 35.9278L218.111 31.7275ZM220.34 34.0011L216.055 38.2013L218.508 40.7038L221.892 39.7967L220.34 34.0011ZM227.805 32.0003L233.542 33.7575L236.715 23.4009L226.252 26.2047L227.805 32.0003ZM225.214 40.46L221.015 44.7462L228.061 51.6495L230.95 42.2172L225.214 40.46ZM215.137 26.313L211.449 27.3014L214.554 38.8927L218.242 37.9042L215.137 26.313ZM208.933 37.5079L214.626 42.7589L222.762 33.9373L217.069 28.6863L208.933 37.5079ZM213.222 35.8879L210.865 41.1318L221.809 46.0522L224.166 40.8083L213.222 35.8879ZM210.541 45.1452L211.847 50.0191L223.438 46.9127L222.132 42.0388L210.541 45.1452ZM223.048 51.068L226.69 43.5036L215.877 38.2994L212.236 45.8638L223.048 51.068ZM217.159 45.2589L222.582 50.3939L230.832 41.6789L225.408 36.544L217.159 45.2589ZM232.463 47.7314L237.775 29.695L226.265 26.305L220.952 44.3415L232.463 47.7314ZM230.467 22.2044L216.559 25.9319L219.664 37.5232L233.573 33.7956L230.467 22.2044ZM213.826 35.9278L216.055 38.2013L224.625 29.8008L222.396 27.5272L213.826 35.9278ZM221.892 39.7967L229.358 37.796L226.252 26.2047L218.787 28.2054L221.892 39.7967ZM222.068 30.2432L219.477 38.7029L230.95 42.2172L233.542 33.7575L222.068 30.2432ZM229.412 36.1738L220.888 27.8224L212.49 36.3948L221.015 44.7462L229.412 36.1738Z" fill="#242424" mask="url(#path-10-inside-5)"/>
<rect x="114" y="516" width="6.20948" height="7.67024" stroke="#242424" stroke-width="4"/>
<rect x="616" y="271" width="6.20948" height="7.67024" stroke="#242424" stroke-width="4"/>
<rect x="2.71202" y="0.80229" width="12.7735" height="14.9633" transform="matrix(0.878609 -0.477542 0.477399 0.878687 382.946 232.402)" stroke="#242424" stroke-width="4"/>
<rect x="-0.732112" y="2.73228" width="12.7752" height="14.9614" transform="matrix(0.499927 0.866067 -0.865983 0.500073 284.42 624)" fill="#242424" stroke="#242424" stroke-width="4"/>
<rect x="-0.732112" y="2.73228" width="12.7752" height="14.9614" transform="matrix(0.499927 0.866067 -0.865983 0.500073 251.42 421)" fill="#242424" stroke="#242424" stroke-width="4"/>
<path d="M266.475 799.849L273.738 815.713H259.212L266.475 799.849Z" fill="#242424"/>
<path d="M535.989 836.704L534.594 822.6L545.448 831.712L535.989 836.704Z" stroke="#242424" stroke-width="3"/>
<ellipse cx="324.022" cy="104.023" rx="8.02173" ry="8.02329" fill="#242424"/>
<path d="M35.4387 674.47C35.4387 676.664 33.6613 678.441 31.4694 678.441C29.2774 678.441 27.5 676.664 27.5 674.47C27.5 672.277 29.2774 670.5 31.4694 670.5C33.6613 670.5 35.4387 672.277 35.4387 674.47Z" stroke="#242424" stroke-width="3"/>
<path d="M77.9229 322.463C77.9229 327.074 74.1865 330.81 69.5781 330.81C64.9696 330.81 61.2332 327.074 61.2332 322.463C61.2332 317.853 64.9696 314.117 69.5781 314.117C74.1865 314.117 77.9229 317.853 77.9229 322.463Z" stroke="#242424" stroke-width="3"/>
<mask id="path-22-inside-6" fill="white">
<path d="M1324 87.6935V83.8745L1334.27 77.8007L1326.77 73.1074V80.8376L1324 82.402V68L1340.04 77.8007L1333.68 81.7118L1340.04 87.1874H1335L1330.54 83.5524L1324 87.6935Z"/>
</mask>
<path d="M1324 83.8745L1320.95 78.7098L1318 80.4519V83.8745H1324ZM1324 87.6935H1318V98.5903L1327.21 92.7638L1324 87.6935ZM1330.54 83.5524L1334.34 78.9039L1330.99 76.1707L1327.34 78.4821L1330.54 83.5524ZM1335 87.1874L1331.2 91.8358L1332.86 93.1874H1335V87.1874ZM1340.04 87.1874V93.1874H1356.21L1343.96 82.6395L1340.04 87.1874ZM1333.68 81.7118L1330.54 76.6003L1323.54 80.9018L1329.77 86.2597L1333.68 81.7118ZM1340.04 77.8007L1343.19 82.9123L1351.53 77.7849L1343.17 72.6805L1340.04 77.8007ZM1324 68L1327.13 62.8798L1318 57.3037V68H1324ZM1324 82.402H1318V92.6772L1326.95 87.6275L1324 82.402ZM1326.77 80.8376L1329.72 86.063L1332.77 84.3412V80.8376H1326.77ZM1326.77 73.1074L1329.96 68.0214L1320.77 62.2741V73.1074H1326.77ZM1334.27 77.8007L1337.33 82.9654L1345.81 77.9462L1337.45 72.7147L1334.27 77.8007ZM1318 83.8745V87.6935H1330V83.8745H1318ZM1327.21 92.7638L1333.75 88.6226L1327.34 78.4821L1320.79 82.6233L1327.21 92.7638ZM1326.75 88.2008L1331.2 91.8358L1338.79 82.539L1334.34 78.9039L1326.75 88.2008ZM1335 93.1874H1340.04V81.1874H1335V93.1874ZM1343.96 82.6395L1337.59 77.164L1329.77 86.2597L1336.13 91.7353L1343.96 82.6395ZM1336.82 86.8234L1343.19 82.9123L1336.9 72.6892L1330.54 76.6003L1336.82 86.8234ZM1343.17 72.6805L1327.13 62.8798L1320.87 73.1202L1336.92 82.921L1343.17 72.6805ZM1318 68V82.402H1330V68H1318ZM1326.95 87.6275L1329.72 86.063L1323.82 75.6122L1321.05 77.1766L1326.95 87.6275ZM1332.77 80.8376V73.1074H1320.77V80.8376H1332.77ZM1323.59 78.1935L1331.09 82.8868L1337.45 72.7147L1329.96 68.0214L1323.59 78.1935ZM1331.22 72.6361L1320.95 78.7098L1327.05 89.0391L1337.33 82.9654L1331.22 72.6361Z" fill="#242424" mask="url(#path-22-inside-6)"/>
<mask id="path-24-inside-7" fill="white">
<path d="M1384.01 785L1386.54 787.858L1382.88 799.218L1391.6 797.755L1386.48 791.97L1387.52 788.96L1397.07 799.739L1378.56 803.047L1380.73 795.899L1372.34 796.022L1376.11 792.675L1381.86 792.441L1384.01 785Z"/>
</mask>
<path d="M1386.54 787.858L1392.25 789.698L1393.3 786.44L1391.03 783.878L1386.54 787.858ZM1384.01 785L1388.5 781.02L1381.27 772.865L1378.24 783.333L1384.01 785ZM1381.86 792.441L1382.1 798.436L1386.42 798.26L1387.62 794.108L1381.86 792.441ZM1376.11 792.675L1375.87 786.679L1373.73 786.766L1372.13 788.184L1376.11 792.675ZM1372.34 796.022L1368.36 791.531L1356.25 802.259L1372.42 802.022L1372.34 796.022ZM1380.73 795.899L1386.47 797.641L1388.85 789.778L1380.64 789.899L1380.73 795.899ZM1378.56 803.047L1372.82 801.304L1369.98 810.677L1379.62 808.954L1378.56 803.047ZM1397.07 799.739L1398.12 805.646L1408.65 803.764L1401.56 795.759L1397.07 799.739ZM1387.52 788.96L1392.01 784.98L1385.19 777.29L1381.84 787.005L1387.52 788.96ZM1386.48 791.97L1380.81 790.015L1379.66 793.327L1381.99 795.95L1386.48 791.97ZM1391.6 797.755L1392.6 803.673L1403.28 801.883L1396.09 793.775L1391.6 797.755ZM1382.88 799.218L1377.17 797.377L1374.15 806.766L1383.87 805.136L1382.88 799.218ZM1391.03 783.878L1388.5 781.02L1379.52 788.98L1382.05 791.838L1391.03 783.878ZM1378.24 783.333L1376.09 790.774L1387.62 794.108L1389.77 786.667L1378.24 783.333ZM1381.61 786.445L1375.87 786.679L1376.36 798.671L1382.1 798.436L1381.61 786.445ZM1372.13 788.184L1368.36 791.531L1376.31 800.512L1380.09 797.166L1372.13 788.184ZM1372.42 802.022L1380.82 801.898L1380.64 789.899L1372.25 790.022L1372.42 802.022ZM1374.99 794.156L1372.82 801.304L1384.3 804.789L1386.47 797.641L1374.99 794.156ZM1379.62 808.954L1398.12 805.646L1396.01 793.832L1377.5 797.14L1379.62 808.954ZM1401.56 795.759L1392.01 784.98L1383.03 792.94L1392.58 803.719L1401.56 795.759ZM1381.84 787.005L1380.81 790.015L1392.15 793.926L1393.19 790.916L1381.84 787.005ZM1381.99 795.95L1387.11 801.735L1396.09 793.775L1390.97 787.99L1381.99 795.95ZM1390.61 791.837L1381.89 793.3L1383.87 805.136L1392.6 803.673L1390.61 791.837ZM1388.59 801.058L1392.25 789.698L1380.83 786.018L1377.17 797.377L1388.59 801.058Z" fill="#242424" mask="url(#path-24-inside-7)"/>
<mask id="path-26-inside-8" fill="white">
<path d="M1209.29 607.357L1207.53 610.751L1195.62 611.439L1200.14 619.048L1203.68 612.179L1206.86 612.06L1200.26 624.859L1190.49 608.792L1197.94 608.234L1194.8 600.45L1199.28 602.763L1201.57 608.036L1209.29 607.357Z"/>
</mask>
<path d="M1207.53 610.751L1207.88 616.741L1211.3 616.544L1212.87 613.502L1207.53 610.751ZM1209.29 607.357L1214.62 610.108L1219.61 600.424L1208.76 601.38L1209.29 607.357ZM1201.57 608.036L1196.07 610.428L1197.79 614.392L1202.1 614.013L1201.57 608.036ZM1199.28 602.763L1204.78 600.371L1203.93 598.411L1202.03 597.431L1199.28 602.763ZM1194.8 600.45L1197.55 595.117L1183.17 587.702L1189.23 602.697L1194.8 600.45ZM1197.94 608.234L1198.39 614.217L1206.58 613.604L1203.5 605.986L1197.94 608.234ZM1190.49 608.792L1190.04 602.808L1180.28 603.54L1185.37 611.908L1190.49 608.792ZM1200.26 624.859L1195.13 627.975L1200.69 637.116L1205.59 627.61L1200.26 624.859ZM1206.86 612.06L1212.19 614.811L1216.9 605.679L1206.63 606.063L1206.86 612.06ZM1203.68 612.179L1203.45 606.182L1199.95 606.313L1198.35 609.427L1203.68 612.179ZM1200.14 619.048L1194.98 622.109L1200.5 631.427L1205.47 621.8L1200.14 619.048ZM1195.62 611.439L1195.28 605.448L1185.43 606.017L1190.46 614.499L1195.62 611.439ZM1212.87 613.502L1214.62 610.108L1203.95 604.606L1202.2 608L1212.87 613.502ZM1208.76 601.38L1201.04 602.059L1202.1 614.013L1209.81 613.334L1208.76 601.38ZM1207.07 605.644L1204.78 600.371L1193.78 605.155L1196.07 610.428L1207.07 605.644ZM1202.03 597.431L1197.55 595.117L1192.04 605.782L1196.53 608.096L1202.03 597.431ZM1189.23 602.697L1192.38 610.481L1203.5 605.986L1200.36 598.202L1189.23 602.697ZM1197.49 602.25L1190.04 602.808L1190.94 614.775L1198.39 614.217L1197.49 602.25ZM1185.37 611.908L1195.13 627.975L1205.38 621.742L1195.62 605.675L1185.37 611.908ZM1205.59 627.61L1212.19 614.811L1201.53 609.308L1194.93 622.107L1205.59 627.61ZM1206.63 606.063L1203.45 606.182L1203.9 618.175L1207.08 618.056L1206.63 606.063ZM1198.35 609.427L1194.8 616.297L1205.47 621.8L1209.01 614.93L1198.35 609.427ZM1205.3 615.988L1200.78 608.378L1190.46 614.499L1194.98 622.109L1205.3 615.988ZM1195.97 617.429L1207.88 616.741L1207.19 604.761L1195.28 605.448L1195.97 617.429Z" fill="#242424" mask="url(#path-26-inside-8)"/>
<mask id="path-28-inside-9" fill="white">
<path d="M766 922.097L769.688 921.109L778.212 929.46L780.804 921L773.339 923.001L771.11 920.728L785.019 917L779.706 935.036L774.282 929.901L770.641 937.466L769.335 932.592L771.693 927.348L766 922.097Z"/>
</mask>
<path d="M769.688 921.109L773.887 916.822L771.442 914.427L768.136 915.313L769.688 921.109ZM766 922.097L764.447 916.301L753.924 919.122L761.932 926.508L766 922.097ZM771.693 927.348L777.165 929.808L778.937 925.867L775.761 922.937L771.693 927.348ZM769.335 932.592L763.863 930.132L762.987 932.081L763.54 934.145L769.335 932.592ZM770.641 937.466L764.846 939.019L769.031 954.643L776.047 940.068L770.641 937.466ZM774.282 929.901L778.407 925.544L772.44 919.895L768.876 927.299L774.282 929.901ZM779.706 935.036L775.581 939.394L782.694 946.128L785.462 936.731L779.706 935.036ZM785.019 917L790.774 918.695L793.796 908.436L783.466 911.204L785.019 917ZM771.11 920.728L769.558 914.932L759.634 917.591L766.825 924.928L771.11 920.728ZM773.339 923.001L769.054 927.201L771.506 929.704L774.891 928.797L773.339 923.001ZM780.804 921L786.541 922.757L789.713 912.401L779.251 915.205L780.804 921ZM778.212 929.46L774.013 933.746L781.059 940.65L783.949 931.217L778.212 929.46ZM768.136 915.313L764.447 916.301L767.553 927.893L771.241 926.904L768.136 915.313ZM761.932 926.508L767.625 931.759L775.761 922.937L770.068 917.686L761.932 926.508ZM766.221 924.888L763.863 930.132L774.808 935.052L777.165 929.808L766.221 924.888ZM763.54 934.145L764.846 939.019L776.437 935.913L775.131 931.039L763.54 934.145ZM776.047 940.068L779.688 932.504L768.876 927.299L765.235 934.864L776.047 940.068ZM770.157 934.259L775.581 939.394L783.831 930.679L778.407 925.544L770.157 934.259ZM785.462 936.731L790.774 918.695L779.263 915.305L773.951 933.341L785.462 936.731ZM783.466 911.204L769.558 914.932L772.663 926.523L786.571 922.796L783.466 911.204ZM766.825 924.928L769.054 927.201L777.624 918.801L775.395 916.527L766.825 924.928ZM774.891 928.797L782.357 926.796L779.251 915.205L771.786 917.205L774.891 928.797ZM775.067 919.243L772.476 927.703L783.949 931.217L786.541 922.757L775.067 919.243ZM782.411 925.174L773.887 916.822L765.489 925.395L774.013 933.746L782.411 925.174Z" fill="#242424" mask="url(#path-28-inside-9)"/>
<mask id="path-30-inside-10" fill="white">
<path d="M1198 253.097L1201.69 252.109L1210.21 260.46L1212.8 252L1205.34 254.001L1203.11 251.728L1217.02 248L1211.71 266.036L1206.28 260.901L1202.64 268.466L1201.34 263.592L1203.69 258.348L1198 253.097Z"/>
</mask>
<path d="M1201.69 252.109L1205.89 247.822L1203.44 245.427L1200.14 246.313L1201.69 252.109ZM1198 253.097L1196.45 247.301L1185.92 250.122L1193.93 257.508L1198 253.097ZM1203.69 258.348L1209.17 260.808L1210.94 256.867L1207.76 253.937L1203.69 258.348ZM1201.34 263.592L1195.86 261.132L1194.99 263.081L1195.54 265.145L1201.34 263.592ZM1202.64 268.466L1196.85 270.019L1201.03 285.643L1208.05 271.068L1202.64 268.466ZM1206.28 260.901L1210.41 256.544L1204.44 250.895L1200.88 258.299L1206.28 260.901ZM1211.71 266.036L1207.58 270.394L1214.69 277.128L1217.46 267.731L1211.71 266.036ZM1217.02 248L1222.77 249.695L1225.8 239.436L1215.47 242.204L1217.02 248ZM1203.11 251.728L1201.56 245.932L1191.63 248.591L1198.83 255.928L1203.11 251.728ZM1205.34 254.001L1201.05 258.201L1203.51 260.704L1206.89 259.797L1205.34 254.001ZM1212.8 252L1218.54 253.757L1221.71 243.401L1211.25 246.205L1212.8 252ZM1210.21 260.46L1206.01 264.746L1213.06 271.65L1215.95 262.217L1210.21 260.46ZM1200.14 246.313L1196.45 247.301L1199.55 258.893L1203.24 257.904L1200.14 246.313ZM1193.93 257.508L1199.63 262.759L1207.76 253.937L1202.07 248.686L1193.93 257.508ZM1198.22 255.888L1195.86 261.132L1206.81 266.052L1209.17 260.808L1198.22 255.888ZM1195.54 265.145L1196.85 270.019L1208.44 266.913L1207.13 262.039L1195.54 265.145ZM1208.05 271.068L1211.69 263.504L1200.88 258.299L1197.24 265.864L1208.05 271.068ZM1202.16 265.259L1207.58 270.394L1215.83 261.679L1210.41 256.544L1202.16 265.259ZM1217.46 267.731L1222.77 249.695L1211.26 246.305L1205.95 264.341L1217.46 267.731ZM1215.47 242.204L1201.56 245.932L1204.66 257.523L1218.57 253.796L1215.47 242.204ZM1198.83 255.928L1201.05 258.201L1209.62 249.801L1207.4 247.527L1198.83 255.928ZM1206.89 259.797L1214.36 257.796L1211.25 246.205L1203.79 248.205L1206.89 259.797ZM1207.07 250.243L1204.48 258.703L1215.95 262.217L1218.54 253.757L1207.07 250.243ZM1214.41 256.174L1205.89 247.822L1197.49 256.395L1206.01 264.746L1214.41 256.174Z" fill="#242424" mask="url(#path-30-inside-10)"/>
<mask id="path-32-inside-11" fill="white">
<path d="M866 179.097L869.688 178.109L878.212 186.46L880.804 178L873.339 180.001L871.11 177.728L885.019 174L879.706 192.036L874.282 186.901L870.641 194.466L869.335 189.592L871.693 184.348L866 179.097Z"/>
</mask>
<path d="M869.688 178.109L873.887 173.822L871.442 171.427L868.136 172.313L869.688 178.109ZM866 179.097L864.447 173.301L853.924 176.122L861.932 183.508L866 179.097ZM871.693 184.348L877.165 186.808L878.937 182.867L875.761 179.937L871.693 184.348ZM869.335 189.592L863.863 187.132L862.987 189.081L863.54 191.145L869.335 189.592ZM870.641 194.466L864.846 196.019L869.031 211.643L876.047 197.068L870.641 194.466ZM874.282 186.901L878.407 182.544L872.44 176.895L868.876 184.299L874.282 186.901ZM879.706 192.036L875.581 196.394L882.694 203.128L885.462 193.731L879.706 192.036ZM885.019 174L890.774 175.695L893.796 165.436L883.466 168.204L885.019 174ZM871.11 177.728L869.558 171.932L859.634 174.591L866.825 181.928L871.11 177.728ZM873.339 180.001L869.054 184.201L871.506 186.704L874.891 185.797L873.339 180.001ZM880.804 178L886.541 179.757L889.713 169.401L879.251 172.205L880.804 178ZM878.212 186.46L874.013 190.746L881.059 197.65L883.949 188.217L878.212 186.46ZM868.136 172.313L864.447 173.301L867.553 184.893L871.241 183.904L868.136 172.313ZM861.932 183.508L867.625 188.759L875.761 179.937L870.068 174.686L861.932 183.508ZM866.221 181.888L863.863 187.132L874.808 192.052L877.165 186.808L866.221 181.888ZM863.54 191.145L864.846 196.019L876.437 192.913L875.131 188.039L863.54 191.145ZM876.047 197.068L879.688 189.504L868.876 184.299L865.235 191.864L876.047 197.068ZM870.157 191.259L875.581 196.394L883.831 187.679L878.407 182.544L870.157 191.259ZM885.462 193.731L890.774 175.695L879.263 172.305L873.951 190.341L885.462 193.731ZM883.466 168.204L869.558 171.932L872.663 183.523L886.571 179.796L883.466 168.204ZM866.825 181.928L869.054 184.201L877.624 175.801L875.395 173.527L866.825 181.928ZM874.891 185.797L882.357 183.796L879.251 172.205L871.786 174.205L874.891 185.797ZM875.067 176.243L872.476 184.703L883.949 188.217L886.541 179.757L875.067 176.243ZM882.411 182.174L873.887 173.822L865.489 182.395L874.013 190.746L882.411 182.174Z" fill="#242424" mask="url(#path-32-inside-11)"/>
<rect x="787" y="697" width="6.20948" height="7.67024" stroke="#242424" stroke-width="4"/>
<rect x="1467" y="309" width="6.20948" height="7.67024" stroke="#242424" stroke-width="4"/>
<rect x="2.71202" y="0.80229" width="12.7735" height="14.9633" transform="matrix(0.878609 -0.477542 0.477399 0.878687 945.946 480.402)" stroke="#242424" stroke-width="4"/>
<rect x="-0.732112" y="2.73228" width="12.7752" height="14.9614" transform="matrix(0.499927 0.866067 -0.865983 0.500073 1125.42 488)" fill="#242424" stroke="#242424" stroke-width="4"/>
<rect x="-0.732112" y="2.73228" width="12.7752" height="14.9614" transform="matrix(0.499927 0.866067 -0.865983 0.500073 1342.42 397)" fill="#242424" stroke="#242424" stroke-width="4"/>
<path d="M1009.39 758L1016.65 773.864H1002.12L1009.39 758Z" fill="#242424"/>
<path d="M1196.99 887.704L1195.59 873.6L1206.45 882.712L1196.99 887.704Z" stroke="#242424" stroke-width="3"/>
<ellipse cx="1065.02" cy="88.0233" rx="8.02173" ry="8.02329" fill="#242424"/>
<path d="M816.439 575.47C816.439 577.664 814.661 579.441 812.469 579.441C810.277 579.441 808.5 577.664 808.5 575.47C808.5 573.277 810.277 571.5 812.469 571.5C814.661 571.5 816.439 573.277 816.439 575.47Z" stroke="#242424" stroke-width="3"/>
<path d="M787.19 373.847C787.19 378.457 783.453 382.194 778.845 382.194C774.236 382.194 770.5 378.457 770.5 373.847C770.5 369.237 774.236 365.5 778.845 365.5C783.453 365.5 787.19 369.237 787.19 373.847Z" stroke="#242424" stroke-width="3"/>
</svg>
