<svg width="83" height="85" viewBox="0 0 83 85" fill="none" xmlns="http://www.w3.org/2000/svg">
<path fill-rule="evenodd" clip-rule="evenodd" d="M69.1667 5.0303H13.8333C8.27701 5.0303 3.77273 9.53458 3.77273 15.0909V70.4242C3.77273 75.9806 8.27702 80.4848 13.8333 80.4848H69.1667C74.723 80.4848 79.2273 75.9806 79.2273 70.4242V15.0909C79.2273 9.53458 74.723 5.0303 69.1667 5.0303ZM13.8333 1.25757C6.19339 1.25757 0 7.45096 0 15.0909V70.4242C0 78.0642 6.1934 84.2576 13.8333 84.2576H69.1667C76.8066 84.2576 83 78.0642 83 70.4242V15.0909C83 7.45096 76.8066 1.25757 69.1667 1.25757H13.8333Z" fill="#CCCCCC"/>
<path fill-rule="evenodd" clip-rule="evenodd" d="M10.0606 59.0844V8.80304L66.9747 43.02L44.4026 56.6747L66.9747 75.7913H49.0782L33.2777 63.1004L10.0606 77.5583V64.225L46.4985 43.02L19.8956 26.6344V53.6225L10.0606 59.0844Z" fill="#CCCCCC"/>
<path d="M76.3477 73.292C76.3477 75.6125 74.5521 77.4937 72.337 77.4937C70.122 77.4937 68.3263 75.6125 68.3263 73.292C68.3263 70.9714 70.122 69.0903 72.337 69.0903C74.5521 69.0903 76.3477 70.9714 76.3477 73.292Z" fill="#CCCCCC"/>
<path fill-rule="evenodd" clip-rule="evenodd" d="M72.337 76.2361C73.8031 76.2361 75.0902 74.9738 75.0902 73.292C75.0902 71.6102 73.8031 70.3478 72.337 70.3478C70.871 70.3478 69.5839 71.6102 69.5839 73.292C69.5839 74.9738 70.871 76.2361 72.337 76.2361ZM72.337 77.4937C74.5521 77.4937 76.3477 75.6125 76.3477 73.292C76.3477 70.9714 74.5521 69.0903 72.337 69.0903C70.122 69.0903 68.3263 70.9714 68.3263 73.292C68.3263 75.6125 70.122 77.4937 72.337 77.4937Z" fill="#CCCCCC"/>
</svg>
